<svg width="404" height="148" viewBox="0 0 404 148" fill="none" xmlns="http://www.w3.org/2000/svg">
<g clip-path="url(#clip0_1597_223)">
<mask id="mask0_1597_223" style="mask-type:luminance" maskUnits="userSpaceOnUse" x="0" y="-30" width="454" height="148">
<path d="M0 -30H453.987V118H0V-30Z" fill="white"/>
</mask>
<g mask="url(#mask0_1597_223)">
<path d="M471.743 -16.7776C468.961 -16.3075 452.037 -17.2457 450.995 -16.7776C449.952 -16.3075 439.288 -16.9119 439.288 -16.9119L425.842 -13.0291L420.742 -10.6856C420.742 -10.6856 411.469 -12.0909 410.079 -10.6856C408.687 -9.28068 402.196 -13.0291 402.196 -13.0291C402.196 -13.0291 397.955 -13.5435 394.354 -10.3707C390.752 -7.19744 377.623 -4.86506 377.623 -4.86506C377.623 -4.86506 372.059 -1.78327 369.741 -2.2514C367.422 -2.72051 361.859 -4.19838 360.468 -4.86506C359.076 -5.53173 355.367 -2.62318 353.513 -2.20323C351.658 -1.78327 346.806 -0.377417 343.669 0.0912018C340.532 0.55982 337.286 0.0912018 337.286 0.0912018C337.286 0.0912018 327.085 -2.32391 321.52 -4.86506C319.54 -5.76969 310.699 -14.1712 309.003 -13.0291C307.612 -12.0909 307.148 -13.4973 305.758 -13.0291C304.366 -12.5605 297.876 -10.2174 296.484 -13.0291C295.094 -15.8394 293.238 -18.6511 291.848 -19.5879C290.458 -20.5261 283.502 -24.2745 282.111 -24.2745C280.721 -24.2745 278.866 -22.8677 275.621 -20.5261C272.422 -18.2161 268.619 -17.0379 264.986 -15.6389C263.294 -14.9873 261.425 -14.3654 259.9 -13.3605C259.311 -12.9717 259.184 -12.451 258.463 -12.1532C257.796 -11.8778 256.864 -12.1756 256.148 -11.9873C254.756 -11.6223 255.219 -12.3513 252.437 -11.9873C246.546 -11.215 240.861 -9.52594 234.946 -8.84175C230.971 -8.38237 228.437 -4.70253 224.001 -4.86506C218.592 -5.06311 208.855 -4.86506 208.855 -4.86506C208.855 -4.86506 205.61 -6.54099 203.292 -4.86506C200.973 -3.18864 196.8 -4.86506 196.8 -4.86506C196.8 -4.86506 187.064 -5.60375 184.746 -4.86506C182.428 -4.12588 179.646 -5.53173 176.863 -7.40669C174.466 -9.02131 171.993 -10.5235 169.541 -12.0496C167.544 -13.2929 165.684 -15.3411 163.172 -15.345C161.292 -15.346 158.283 -13.1162 156.934 -15.3586C155.99 -16.9294 155.093 -18.5499 154.073 -20.0735C152.392 -22.585 144.8 -21.7606 142.554 -20.0565C140.699 -18.6511 137.454 -17.2457 134.672 -15.8394C131.889 -14.434 121.226 -11.9873 121.226 -11.9873L117.517 -13.0291C117.517 -13.0291 114.735 -12.8194 112.417 -11.9873C110.098 -11.1542 109.635 -10.9459 105.925 -11.9873C103.197 -12.7537 100.272 -13.998 97.9695 -15.6924C96.0054 -17.1362 95.0004 -19.8268 93.0257 -21.1363C90.945 -22.5154 89.484 -20.3626 87.8435 -19.1192C85.9886 -17.7144 82.2799 -17.2457 79.9614 -17.2457C77.6433 -17.2457 72.543 -17.7144 72.543 -17.7144C72.543 -17.7144 73.0274 -16.7776 64.2077 -16.3075C55.3881 -15.8394 47.0427 -12.0909 41.9424 -13.0291C36.842 -13.9659 33.1333 -11.1542 29.4241 -14.9026C25.7149 -18.6511 21.0783 -24.2745 21.0783 -24.2745H15.051L13.1962 -27.293L5.77776 -29.8965C5.77776 -29.8965 0.754948 -26.148 -2.99278 -24.2745C-6.74051 -22.3996 -21.5773 -13.0291 -21.5773 -13.0291L-35.8281 135.502L442.07 157.26L471.743 -16.7776Z" fill="#C9E8EB"/>
</g>
<mask id="mask1_1597_223" style="mask-type:luminance" maskUnits="userSpaceOnUse" x="0" y="-6" width="454" height="148">
<path d="M0 -6H453.987V142H0V-6Z" fill="white"/>
</mask>
<g mask="url(#mask1_1597_223)">
<path d="M471.743 7.2224C468.961 7.69248 452.037 6.75427 450.995 7.2224C449.952 7.69248 439.288 7.08809 439.288 7.08809L425.842 10.9709L420.742 13.3144C420.742 13.3144 411.469 11.9091 410.079 13.3144C408.687 14.7193 402.196 10.9709 402.196 10.9709C402.196 10.9709 397.955 10.4565 394.354 13.6293C390.752 16.8026 377.623 19.1349 377.623 19.1349C377.623 19.1349 372.059 22.2167 369.741 21.7486C367.422 21.2795 361.859 19.8016 360.468 19.1349C359.076 18.4683 355.367 21.3768 353.513 21.7968C351.658 22.2167 346.806 23.6226 343.669 24.0912C340.532 24.5598 337.286 24.0912 337.286 24.0912C337.286 24.0912 327.085 21.6761 321.52 19.1349C319.54 18.2303 310.699 9.82875 309.003 10.9709C307.612 11.9091 307.148 10.5027 305.758 10.9709C304.366 11.4395 297.876 13.7826 296.484 10.9709C295.094 8.16061 293.238 5.3489 291.848 4.41215C290.458 3.47394 283.502 -0.274523 282.111 -0.274523C280.721 -0.274523 278.866 1.13231 275.621 3.47394C272.422 5.78394 268.619 6.96206 264.986 8.3611C263.294 9.01269 261.425 9.63459 259.9 10.6395C259.311 11.0283 259.184 11.549 258.463 11.8468C257.796 12.1222 256.864 11.8244 256.148 12.0127C254.756 12.3777 255.219 11.6487 252.437 12.0127C246.546 12.785 240.861 14.4741 234.946 15.1583C230.971 15.6176 228.437 19.2975 224.001 19.1349C218.592 18.9369 208.855 19.1349 208.855 19.1349C208.855 19.1349 205.61 17.459 203.292 19.1349C200.973 20.8114 196.8 19.1349 196.8 19.1349C196.8 19.1349 187.064 18.3962 184.746 19.1349C182.428 19.8741 179.646 18.4683 176.863 16.5933C174.466 14.9787 171.993 13.4765 169.541 11.9504C167.544 10.7071 165.684 8.65891 163.172 8.65502C161.292 8.65405 158.283 10.8838 156.934 8.64139C155.99 7.07057 155.093 5.45012 154.073 3.9265C152.392 1.41503 144.8 2.23937 142.554 3.94353C140.699 5.3489 137.454 6.75427 134.672 8.16061C131.889 9.56598 121.226 12.0127 121.226 12.0127L117.517 10.9709C117.517 10.9709 114.735 11.1806 112.417 12.0127C110.098 12.8458 109.635 13.0541 105.925 12.0127C103.197 11.2463 100.272 10.002 97.9695 8.30757C96.0054 6.86376 95.0004 4.17322 93.0257 2.86371C90.945 1.48462 89.484 3.63744 87.8435 4.88077C85.9886 6.28565 82.2799 6.75427 79.9614 6.75427C77.6433 6.75427 72.543 6.28565 72.543 6.28565C72.543 6.28565 73.0274 7.2224 64.2077 7.69248C55.3881 8.16061 47.0427 11.9091 41.9424 10.9709C36.842 10.0341 33.1333 12.8458 29.4241 9.09736C25.7149 5.3489 21.0783 -0.274523 21.0783 -0.274523H15.051L13.1962 -3.29305L5.77776 -5.89648C5.77776 -5.89648 0.754948 -2.14802 -2.99278 -0.274523C-6.74051 1.60044 -21.5773 10.9709 -21.5773 10.9709L-35.8281 159.502L442.07 181.26L471.743 7.2224Z" fill="#95D2D7"/>
</g>
<mask id="mask2_1597_223" style="mask-type:luminance" maskUnits="userSpaceOnUse" x="0" y="14" width="454" height="134">
<path d="M0 14.0781H453.987V148.001H0V14.0781Z" fill="white"/>
</mask>
<g mask="url(#mask2_1597_223)">
<path d="M-20.7461 27.281C-17.9643 27.7501 -1.04104 26.8129 0.0019474 27.281C1.04494 27.7501 11.7088 27.1462 11.7088 27.1462L25.155 31.0294L30.2549 33.3725C30.2549 33.3725 39.5276 31.9667 40.9188 33.3725C42.3099 34.7779 48.8009 31.0294 48.8009 31.0294C48.8009 31.0294 53.0422 30.5146 56.643 33.6879C60.2444 36.8611 73.3742 39.193 73.3742 39.193C73.3742 39.193 78.9377 42.2748 81.2558 41.8067C83.5744 41.3381 89.1379 39.8597 90.5291 39.193C91.9197 38.5264 95.6289 41.4349 97.4837 41.8549C99.3381 42.2748 104.191 43.6807 107.329 44.1493C110.466 44.6179 113.711 44.1493 113.711 44.1493C113.711 44.1493 123.911 41.7342 129.476 39.193C131.457 38.2884 140.298 29.8869 141.994 31.0294C143.384 31.9667 143.848 30.5613 145.24 31.0294C146.63 31.4981 153.122 33.8412 154.512 31.0294C155.903 28.2182 157.758 25.407 159.149 24.4698C160.54 23.533 167.494 19.7841 168.886 19.7841C170.276 19.7841 172.132 21.1894 175.376 23.533C178.575 25.8416 182.377 27.0202 186.011 28.4187C187.703 29.0703 189.571 29.6927 191.096 30.6985C191.686 31.0869 191.814 31.6076 192.534 31.9054C193.201 32.1803 194.133 31.883 194.849 32.0708C196.241 32.4353 195.777 31.7063 198.559 32.0708C204.451 32.8431 210.137 34.5327 216.05 35.2164C220.026 35.6762 222.559 39.3556 226.996 39.193C232.405 38.995 242.142 39.193 242.142 39.193C242.142 39.193 245.388 37.5171 247.705 39.193C250.024 40.8695 254.196 39.193 254.196 39.193C254.196 39.193 263.932 38.4543 266.251 39.193C268.57 39.9322 271.351 38.5264 274.134 36.6519C276.531 35.0373 279.005 33.5346 281.456 32.0085C283.454 30.7647 285.313 28.717 287.825 28.7141C289.705 28.7117 292.714 30.9428 294.062 28.7C295.007 27.1292 295.904 25.5077 296.924 23.9851C298.605 21.4722 306.196 22.298 308.443 24.0011C310.297 25.407 313.543 26.8129 316.325 28.2182C319.107 29.6241 329.77 32.0708 329.77 32.0708L333.479 31.0294C333.479 31.0294 336.262 31.2382 338.581 32.0708C340.898 32.9039 341.361 33.1122 345.072 32.0708C347.8 31.3049 350.725 30.0596 353.026 28.3662C354.991 26.9219 355.996 24.2308 357.971 22.9223C360.052 21.5432 361.512 23.6951 363.153 24.9384C365.009 26.3442 368.716 26.8129 371.035 26.8129C373.354 26.8129 378.453 26.3442 378.453 26.3442C378.453 26.3442 377.969 27.281 386.789 27.7501C395.608 28.2182 403.955 31.9667 409.054 31.0294C414.154 30.0927 417.863 32.9039 421.573 29.1555C425.282 25.407 429.918 19.7841 429.918 19.7841H435.946L437.8 16.7646L445.219 14.1621C445.219 14.1621 450.242 17.9106 453.989 19.7841C457.738 21.659 472.574 31.0294 472.574 31.0294L486.825 179.561L8.92705 201.318L-20.7461 27.281Z" fill="#68B9C1"/>
</g>
<mask id="mask3_1597_223" style="mask-type:luminance" maskUnits="userSpaceOnUse" x="0" y="21" width="454" height="90">
<path d="M0 21.1777H453.987V110.125H0V21.1777Z" fill="white"/>
</mask>
<g mask="url(#mask3_1597_223)">
<path d="M-24.4575 35.2476C-22.6032 36.07 -6.83894 38.2632 -2.66602 39.0856C1.50642 39.908 16.0524 42.4706 21.4431 42.3752C26.8343 42.2803 51.1167 45.9392 58.0714 46.7616C65.0261 47.5845 82.441 47.7869 91.8159 47.6857C101.191 47.5845 114.173 45.9392 116.954 46.7616C119.736 47.5845 125.3 48.3835 128.082 47.7096C130.864 47.0361 139.673 45.6653 141.528 45.6653C143.382 45.6653 153.12 46.4877 153.12 46.4877C153.12 46.4877 157.756 46.2137 160.074 45.9392C162.074 45.7027 164.109 45.5407 166.137 45.421C167.095 45.3645 169.011 45.0872 169.877 45.4395C170.493 45.6906 170.44 46.1748 170.794 46.5212C171.176 46.8959 171.812 47.1169 172.473 47.2959C173.961 47.6993 175.634 47.7996 177.229 47.9621C186.965 48.9553 198.092 50.0517 200.875 50.0517C203.657 50.0517 206.903 49.5033 213.857 50.0517C220.811 50.6001 231.012 49.2293 240.284 50.0517C249.558 50.8741 255.571 49.5033 263.692 50.0517C271.812 50.6001 280.159 48.1324 283.404 47.31C286.649 46.4877 291.75 45.1168 291.75 45.1168L296.85 45.6653C296.85 45.6653 299.632 46.4877 301.95 45.9392C304.268 45.3908 304.268 45.3908 304.268 45.3908C304.268 45.3908 314.468 44.8429 316.323 44.8429C318.177 44.8429 328.841 46.7616 331.16 47.0361C333.477 47.31 337.186 47.8585 342.751 47.31C348.314 46.7616 352.024 45.6653 354.806 44.5684C357.588 43.472 360.369 42.1012 363.614 40.7304C366.847 39.3654 374.677 32.8349 376.115 32.5094C378.417 31.9892 380.286 30.194 381.93 29.176C383.79 28.0247 386.151 27.2597 388.313 26.3351C390.77 25.284 391.67 24.1536 392.961 22.5531C394.627 20.4888 397.102 21.4231 400.5 21.4553C402.86 21.4791 403.741 23.3662 404.969 24.2441C405.599 24.6942 408.589 25.6748 408.589 26.2003C411.747 27.268 420.176 27.2962 420.625 27.2967C421.369 27.2981 425.276 29.8218 425.992 30.1721C427.598 30.9575 429.216 31.7357 430.844 32.506C431.748 33.162 432.655 33.8169 433.557 34.4744C433.922 34.7406 434.702 35.5878 435.226 35.7211C436.225 35.9746 437.577 35.4793 438.746 35.524C440.903 35.6068 444.717 38.0661 446.608 38.8112C452.171 41.0049 444.413 38.1897 468.862 47.0361C493.312 55.8819 515.691 64.8976 515.691 64.8976L418.667 104.06L-55.0586 110.091L-24.4575 35.2476Z" fill="#3FA4AE"/>
</g>
<mask id="mask4_1597_223" style="mask-type:luminance" maskUnits="userSpaceOnUse" x="0" y="41" width="454" height="100">
<path d="M0 41.8809H453.987V140.171H0V41.8809Z" fill="white"/>
</mask>
<g mask="url(#mask4_1597_223)">
<path d="M-61.5625 84.6903C-57.8533 83.3117 -21.9752 71.4552 -15.3412 68.1461C-8.70669 64.8376 12.0967 58.528 15.3726 56.7192C18.6484 54.9109 30.2392 50.7751 33.4847 49.9479C36.7307 49.1206 43.6854 46.7556 43.6854 46.7556C43.6854 46.7556 49.7127 44.157 50.6401 43.3303C51.567 42.503 52.9582 41.9512 54.813 41.9512C56.6674 41.9512 65.0132 46.7556 65.0132 46.7556C65.0132 46.7556 67.795 46.8719 69.6494 46.7556C71.5042 46.6388 74.286 44.942 75.6766 46.7556C77.0678 48.5693 85.4136 54.6355 85.4136 54.6355L100.25 59.874C100.25 59.874 105.566 60.7017 109.632 60.7017C113.696 60.7017 114.159 60.1499 116.014 60.9772C117.869 61.8044 128.068 65.113 128.068 65.113C128.068 65.113 133.633 66.7675 137.806 66.7675C141.978 66.7675 153.106 65.3889 155.888 65.113C158.669 64.8376 172.115 63.3208 172.115 63.3208H176.288C176.288 63.3208 184.171 62.6317 186.952 61.5285C189.734 60.4258 193.698 59.0472 193.698 59.0472L205.962 54.6355L213.38 52.4291C213.38 52.4291 224.029 51.3279 225.432 50.7761C230.367 48.8349 232.209 48.0748 237.026 50.2233C238.88 51.0505 248.153 54.6355 248.153 54.6355H251.398C251.398 54.6355 260.209 56.0141 261.599 56.8414C262.99 57.6681 267.163 58.7713 272.727 60.1499C278.29 61.5285 291.736 63.8877 291.736 63.8877L301.472 67.3189L316.309 69.7335C316.309 69.7335 322.801 73.134 324.655 72.1569C326.51 71.1792 333.465 70.2177 336.71 69.7335C339.955 69.2493 350.156 67.0434 350.156 67.0434L363.601 66.7675C363.601 66.7675 366.847 65.1436 370.556 63.8877C374.265 62.6317 381.22 60.4258 381.22 60.4258L392.348 60.7017L405.793 57.3927L408.575 56.5654L412.748 56.8414L419.581 57.3927H422.022L429.439 58.4959L434.54 59.0472L443.812 58.4959C443.812 58.4959 446.131 58.22 449.377 59.0472C452.621 59.874 472.559 63.459 474.877 63.3208C477.195 63.183 508.723 67.3189 508.723 67.3189L489.128 138.459L-44.4076 140.113L-61.5625 84.6903Z" fill="#238A94"/>
</g>
<mask id="mask5_1597_223" style="mask-type:luminance" maskUnits="userSpaceOnUse" x="0" y="58" width="454" height="98">
<path d="M0 58H453.987V155.297H0V58Z" fill="white"/>
</mask>
<g mask="url(#mask5_1597_223)">
<path d="M-39.7598 74.2287C-39.7598 74.2287 55.7517 74.3703 58.5334 76.1737C61.3152 77.9772 89.5977 77.5086 93.7706 78.4458C97.9436 79.383 120.662 82.6629 124.834 82.6629C129.007 82.6629 141.99 82.6629 145.236 82.6629C148.48 82.6629 158.218 84.0682 165.172 85.9427C172.128 87.8167 185.531 88.2853 187.87 88.2853C190.209 88.2853 204.119 88.2853 204.119 88.2853C204.119 88.2853 208.755 88.7539 210.146 88.2853C211.537 87.8167 210.598 90.5759 214.777 88.4936C218.956 86.4113 222.2 84.5369 222.2 84.5369L226.992 85.0055C226.992 85.0055 230.547 87.9345 235.646 89.2814C240.746 90.6279 246.774 92.0338 246.774 92.0338C246.774 92.0338 256.047 91.5652 258.365 92.0338C260.683 92.5024 266.711 94.3769 266.711 94.3769C266.711 94.3769 276.911 92.0338 284.794 94.3769C292.676 96.7195 296.385 97.6567 299.63 97.1881C302.875 96.7195 317.712 89.6912 322.812 89.2226C327.912 88.7539 337.185 87.934 339.504 85.767C341.821 83.5996 346.33 81.257 350.799 77.9772C355.267 74.6973 358.05 72.3961 359.904 72.1411C361.759 71.8861 367.786 71.9275 371.031 72.1411C374.277 72.3547 384.941 76.1737 384.941 76.1737H389.114C389.114 76.1737 394.591 74.3703 400.429 76.1737C406.268 77.9772 410.441 75.3076 412.296 76.1737C414.151 77.0399 420.178 72.1411 420.178 72.1411L425.741 71.9649C425.741 71.9649 437.333 58.7663 441.506 58.2981C445.678 57.8295 466.543 58.2981 466.543 58.2981L496.68 76.1737L499.925 175.904L9.85055 172.526L-39.7598 74.2287Z" fill="#065961"/>
</g>
<mask id="mask6_1597_223" style="mask-type:luminance" maskUnits="userSpaceOnUse" x="217" y="62" width="240" height="88">
<path d="M217 62H456.249V149.331H217V62Z" fill="white"/>
</mask>
<g mask="url(#mask6_1597_223)">
<path d="M421.249 95.6857C416.895 98.3612 412.473 101.067 407.574 102.484C403.714 103.601 399.673 103.882 395.686 104.372C388.717 105.23 381.843 106.739 374.981 108.246C355.809 112.457 336.637 116.669 317.463 120.881C305.038 123.611 292.571 126.352 280.594 130.672C257.711 138.923 237.244 152.694 217.039 166.329C299.709 166.324 382.376 166.319 465.046 166.314C471.952 166.314 479.775 165.913 484.293 160.633C486.396 158.175 487.446 154.973 488.094 151.791C490.839 138.32 487.263 124.483 484.781 110.961C483.392 103.394 482.344 95.7631 481.639 88.1002C480.98 80.9254 482.242 71.9492 480.323 65.081C478.163 57.3505 468.597 66.5919 464.63 69.0294C457.956 73.1302 451.282 77.2315 444.609 81.3323C436.822 86.1167 429.036 90.9012 421.249 95.6857Z" fill="#024349"/>
</g>
<path d="M298.874 103.784C298.834 103.789 298.895 103.781 298.975 103.775C298.94 103.778 298.907 103.78 298.874 103.784Z" fill="#046442"/>
<path d="M300.069 111.237C300.067 111.227 300.064 111.22 300.061 111.215C300.035 111.273 300.099 111.344 300.069 111.237Z" fill="#046442"/>
<path d="M300.989 91.4378C301.015 91.427 301.014 91.3958 301.012 91.3759C301.003 91.3733 300.992 91.3715 300.982 91.3711C300.922 91.3698 300.933 91.4616 300.989 91.4378Z" fill="#046442"/>
<path d="M280.372 112.051C280.392 112.081 280.415 112.108 280.44 112.121C280.408 111.987 280.318 111.969 280.372 112.051Z" fill="#046442"/>
<path d="M301.011 91.3753C301.015 91.3766 301.021 91.3778 301.025 91.3794C301.007 91.3495 301.009 91.3573 301.011 91.3753Z" fill="#046442"/>
<path d="M303.905 94.2504C303.905 94.2504 303.901 94.2504 303.893 94.25C304.058 94.3834 303.905 94.2504 303.905 94.2504Z" fill="#046442"/>
<path d="M340.619 93.6897C340.574 93.7149 340.562 93.7361 340.58 93.7543C340.638 93.7075 340.703 93.6577 340.776 93.6031C341.82 92.8323 340.776 93.6031 340.619 93.6897Z" fill="#046442"/>
<path d="M269.684 103.629C269.684 103.629 269.691 103.635 269.704 103.645C269.71 103.563 269.684 103.629 269.684 103.629Z" fill="#046442"/>
<path d="M268.113 107.949C267.904 107.988 267.775 107.985 267.775 107.985C267.775 107.985 267.78 108.022 267.846 108.052C267.887 108.07 268.083 107.961 268.113 107.949Z" fill="#046442"/>
<path d="M263.073 111.582C263.046 111.569 263.032 111.565 263.025 111.567C263.094 111.598 263.172 111.632 263.259 111.673C264.161 112.081 263.259 111.673 263.073 111.582Z" fill="#046442"/>
<path d="M267.741 107.913C267.751 107.913 267.761 107.908 267.77 107.898C267.734 107.907 267.692 107.913 267.641 107.913C267.674 107.913 267.712 107.913 267.741 107.913Z" fill="#046442"/>
<path d="M353.529 90.8006C353.545 90.7985 353.546 90.798 353.529 90.8006V90.8006Z" fill="#046442"/>
<path d="M353.519 90.8027C353.517 90.8036 353.515 90.8036 353.512 90.804C353.513 90.804 353.513 90.804 353.514 90.804C353.516 90.8036 353.518 90.8032 353.519 90.8027Z" fill="#046442"/>
<path d="M365.534 82.1993C365.595 82.2071 365.582 82.1157 365.524 82.133C365.513 82.1361 365.505 82.1404 365.496 82.1452C365.5 82.1651 365.507 82.1958 365.534 82.1993Z" fill="#046442"/>
<path d="M365.484 82.153C365.489 82.1505 365.492 82.1475 365.496 82.1449C365.494 82.1265 365.494 82.1179 365.484 82.153Z" fill="#046442"/>
<path d="M327.952 95.1058C327.778 95.0642 326.568 94.6043 327.778 95.0642C327.863 95.0967 327.939 95.1274 328.007 95.1569C328.018 95.1348 328.001 95.1175 327.952 95.1058Z" fill="#046442"/>
<path d="M383.184 78.9432C383.198 78.941 383.199 78.9406 383.184 78.9432V78.9432Z" fill="#046442"/>
<path d="M357.606 83.2464C357.431 83.2048 356.223 82.745 357.431 83.2048C357.517 83.2373 357.593 83.2681 357.661 83.2975C357.672 83.2754 357.655 83.2581 357.606 83.2464Z" fill="#046442"/>
<path d="M395.137 70.2935C395.141 70.2909 395.145 70.2879 395.15 70.2854C395.147 70.267 395.147 70.2588 395.137 70.2935Z" fill="#046442"/>
<path d="M395.188 70.3399C395.248 70.3477 395.235 70.2564 395.178 70.2737C395.166 70.2767 395.158 70.281 395.15 70.2858C395.153 70.3057 395.16 70.3365 395.188 70.3399Z" fill="#046442"/>
<path d="M393.138 73.8359C393.13 73.8385 393.127 73.8394 393.127 73.8394C393.127 73.8394 393.015 74.0092 393.138 73.8359Z" fill="#046442"/>
<path d="M383.167 78.9444C383.167 78.945 383.166 78.945 383.166 78.945C383.169 78.9444 383.171 78.9439 383.174 78.9434C383.173 78.9439 383.17 78.9444 383.167 78.9444Z" fill="#046442"/>
<path d="M400.51 73.1954C400.336 73.1543 399.126 72.6939 400.336 73.1543C400.422 73.1867 400.498 73.2175 400.565 73.2465C400.577 73.2244 400.56 73.2075 400.51 73.1954Z" fill="#046442"/>
<mask id="mask7_1597_223" style="mask-type:luminance" maskUnits="userSpaceOnUse" x="1" y="70" width="387" height="80">
<path d="M1 70H387.824V149.234H1V70Z" fill="white"/>
</mask>
<g mask="url(#mask7_1597_223)">
<path d="M387.787 162.595C354.926 152.124 322.065 141.654 289.205 131.183C277.683 127.512 266.138 123.836 254.31 121.349C241.869 118.735 229.194 117.456 216.535 116.336C175.701 112.721 134.63 110.69 94.2883 103.346C75.6407 99.9506 57.1178 95.4002 39.5723 88.1699C23.9906 81.7489 9.0387 73.177 -7.51332 70.1094C-11.1859 97.4552 -10.8845 126.554 -6.44578 153.783C-6.03166 156.325 -5.52365 158.991 -3.87635 160.957C-1.96613 163.236 1.0935 164.121 3.99951 164.669C10.8333 165.96 17.8266 166.042 24.7784 166.114C146.25 167.38 266.332 164.949 387.787 162.595Z" fill="#013B41"/>
</g>
</g>
<defs>
<clipPath id="clip0_1597_223">
<rect width="404" height="148" fill="white"/>
</clipPath>
</defs>
</svg>
